<?xml version="1.0" encoding="UTF-8"?>
<svg version="1.1" viewBox="0 0 2000 1308" xmlns="http://www.w3.org/2000/svg">
<title>LogoModelCanvasVertical</title>
<desc>Created with Sketch.</desc>
<g fill="none" fill-rule="evenodd">
<path d="m266.5 1050c13.2 0 22.333 4.0333 27.4 12.1s7.6 19.233 7.6 33.5v51.2c0 3.4667-1.1333 6.3666-3.4 8.7s-5.1333 3.5-8.6 3.5-6.3333-1.1666-8.6-3.5-3.4-5.2333-3.4-8.7v-51.2c0-7.3334-1.4333-13.1-4.3-17.3s-7.9-6.3-15.1-6.3c-7.4667 0-13.3 2.2333-17.5 6.7s-6.3 10.1-6.3 16.9v51.2c0 3.4667-1.1333 6.3666-3.4 8.7s-5.1333 3.5-8.6 3.5-6.3333-1.1666-8.6-3.5-3.4-5.2333-3.4-8.7v-51.2c0-7.3334-1.4333-13.1-4.3-17.3s-7.9-6.3-15.1-6.3c-7.4667 0-13.3 2.2333-17.5 6.7s-6.3 10.1-6.3 16.9v51.2c0 3.4667-1.1333 6.3666-3.4 8.7s-5.1333 3.5-8.6 3.5-6.3333-1.1666-8.6-3.5-3.4-5.2333-3.4-8.7v-82.6c0-3.4667 1.1333-6.3666 3.4-8.7s5.1333-3.5 8.6-3.5 6.3333 1.1666 8.6 3.5 3.4 5.2333 3.4 8.7v3.2c3.6-4.8 8.1666-8.9 13.7-12.3s11.7-5.1 18.5-5.1c16.8 0 27.533 7.3333 32.2 22 3.0667-5.6 7.7-10.667 13.9-15.2s13.233-6.8 21.1-6.8zm163.8 55.6c0 10.667-2.4 20.233-7.2 28.7s-11.367 15.033-19.7 19.7-17.5 7-27.5 7c-10.133 0-19.333-2.3333-27.6-7s-14.8-11.233-19.6-19.7-7.2-18.033-7.2-28.7 2.4-20.233 7.2-28.7 11.333-15.067 19.6-19.8 17.467-7.1 27.6-7.1c10 0 19.167 2.3666 27.5 7.1s14.9 11.333 19.7 19.8 7.2 18.033 7.2 28.7zm-24 0c0-6.5334-1.3667-12.367-4.1-17.5s-6.4-9.1-11-11.9-9.7-4.2-15.3-4.2-10.7 1.4-15.3 4.2-8.2667 6.7666-11 11.9-4.1 10.967-4.1 17.5 1.3667 12.333 4.1 17.4 6.4 9 11 11.8 9.7 4.2 15.3 4.2 10.7-1.4 15.3-4.2 8.2667-6.7333 11-11.8 4.1-10.867 4.1-17.4zm130.6-94.6c3.4667 0 6.3333 1.1333 8.6 3.4s3.4 5.2 3.4 8.8v123.6c0 3.4667-1.1333 6.3666-3.4 8.7s-5.1333 3.5-8.6 3.5-6.3-1.1333-8.5-3.4-3.3667-5.1333-3.5-8.6c-3.3334 3.8667-7.8333 7.1666-13.5 9.9s-11.633 4.1-17.9 4.1c-9.2 0-17.533-2.3666-25-7.1s-13.367-11.3-17.7-19.7-6.5-17.933-6.5-28.6 2.1333-20.233 6.4-28.7 10.1-15.067 17.5-19.8 15.567-7.1 24.5-7.1c6.4 0 12.4 1.1666 18 3.5s10.333 5.3 14.2 8.9v-39.2c0-3.4667 1.1333-6.3666 3.4-8.7s5.1333-3.5 8.6-3.5zm-40.4 128c8.6667 0 15.733-3.1666 21.2-9.5s8.2-14.3 8.2-23.9-2.7333-17.6-8.2-24-12.533-9.6-21.2-9.6c-8.5334 0-15.533 3.2-21 9.6s-8.2 14.4-8.2 24 2.7 17.567 8.1 23.9 12.433 9.5 21.1 9.5zm174.4-36c-0.13333 3.2-1.4 5.8-3.8 7.8s-5.2 3-8.4 3h-66c1.6 7.8667 5.2666 14.033 11 18.5s12.2 6.7 19.4 6.7c5.4667 0 9.7333-0.5 12.8-1.5s5.5-2.0667 7.3-3.2 3.0333-1.9 3.7-2.3c2.4-1.2 4.6667-1.8 6.8-1.8 2.8 0 5.2 0.99999 7.2 3s3 4.3333 3 7c0 3.6-1.8666 6.8666-5.6 9.8-3.7334 3.0667-8.7333 5.6667-15 7.8s-12.6 3.2-19 3.2c-11.2 0-20.967-2.3333-29.3-7s-14.767-11.1-19.3-19.3-6.8-17.433-6.8-27.7c0-11.467 2.4-21.533 7.2-30.2s11.133-15.3 19-19.9 16.267-6.9 25.2-6.9c8.8 0 17.1 2.4 24.9 7.2s14.033 11.267 18.7 19.4 7 16.933 7 26.4zm-50.6-31c-15.467 0-24.6 7.2666-27.4 21.8h52.4v-1.4c-0.53334-5.6-3.2666-10.4-8.2-14.4s-10.533-6-16.8-6zm96.6 74.8c0 3.4667-1.1667 6.3666-3.5 8.7s-5.2333 3.5-8.7 3.5c-3.3334 0-6.1333-1.1666-8.4-3.5s-3.4-5.2333-3.4-8.7v-123.6c0-3.4667 1.1667-6.3666 3.5-8.7s5.2333-3.5 8.7-3.5c3.3334 0 6.1333 1.1666 8.4 3.5s3.4 5.2333 3.4 8.7v123.6z" fill="#C0392B"/>
<path d="m845.1 1025.8c4.1334 2.1333 6.2 5.5333 6.2 10.2 0 2.8-0.99999 5.5333-3 8.2-2.1333 2.8-4.8666 4.2-8.2 4.2-2.2667 0-4.5333-0.59999-6.8-1.8-6.5334-3.0667-13.6-4.6-21.2-4.6-9.3334 0-17.467 1.9666-24.4 5.9s-12.267 9.4666-16 16.6-5.6 15.3-5.6 24.5c0 15.733 4.2333 27.667 12.7 35.8s19.567 12.2 33.3 12.2c8.1334 0 15.2-1.5333 21.2-4.6 2.4-1.0667 4.5333-1.6 6.4-1.6 3.4667 0 6.4 1.4666 8.8 4.4 2 2.5334 3 5.2666 3 8.2 0 2.1333-0.53333 4.0667-1.6 5.8s-2.6 3.0667-4.6 4c-10.4 5.2-21.467 7.8-33.2 7.8-13.067 0-25.067-2.7666-36-8.3s-19.667-13.7-26.2-24.5-9.8-23.867-9.8-39.2c0-13.6 3.1-25.8 9.3-36.6s14.767-19.233 25.7-25.3 23.267-9.1 37-9.1c11.867 0 22.867 2.6 33 7.8zm112 24.2c3.4667 0 6.3333 1.1333 8.6 3.4s3.4 5.2 3.4 8.8v84.6c0 3.4667-1.1333 6.3666-3.4 8.7s-5.1333 3.5-8.6 3.5-6.3-1.1333-8.5-3.4-3.3667-5.1333-3.5-8.6c-3.3334 3.8667-7.8333 7.1666-13.5 9.9s-11.633 4.1-17.9 4.1c-9.2 0-17.533-2.3666-25-7.1s-13.367-11.3-17.7-19.7-6.5-17.933-6.5-28.6 2.1333-20.233 6.4-28.7 10.1-15.067 17.5-19.8 15.567-7.1 24.5-7.1c6.4 0 12.4 1.1666 18 3.5s10.333 5.3 14.2 8.9v-0.2c0-3.4667 1.1333-6.3666 3.4-8.7s5.1333-3.5 8.6-3.5zm-40.4 89c8.6667 0 15.733-3.1666 21.2-9.5s8.2-14.3 8.2-23.9-2.7333-17.6-8.2-24-12.533-9.6-21.2-9.6c-8.5334 0-15.533 3.2-21 9.6s-8.2 14.4-8.2 24 2.7 17.567 8.1 23.9 12.433 9.5 21.1 9.5zm135.6-89c13.6 0 23 4.0333 28.2 12.1s7.8 19.233 7.8 33.5v51.2c0 3.4667-1.1333 6.3666-3.4 8.7s-5.1333 3.5-8.6 3.5-6.3333-1.1666-8.6-3.5-3.4-5.2333-3.4-8.7v-51.2c0-7.3334-1.5333-13.1-4.6-17.3s-8.3333-6.3-15.8-6.3c-7.7334 0-13.8 2.2333-18.2 6.7s-6.6 10.1-6.6 16.9v51.2c0 3.4667-1.1333 6.3666-3.4 8.7s-5.1333 3.5-8.6 3.5-6.3333-1.1666-8.6-3.5c-2.2667-2.3334-3.4-5.2333-3.4-8.7v-82.6c0-3.4667 1.1333-6.3666 3.4-8.7 2.2667-2.3334 5.1333-3.5 8.6-3.5s6.3333 1.1666 8.6 3.5 3.4 5.2333 3.4 8.7v3.4c3.6-4.8 8.3-8.9333 14.1-12.4s12.167-5.2 19.1-5.2zm143.2 2.2c3.2 0 5.8667 1.0333 8 3.1s3.2 4.6333 3.2 7.7c0 1.6-0.53333 3.6-1.6 6l-37.4 82.4c-0.93334 2.2667-2.3 4.0667-4.1 5.4s-3.8333 2.0667-6.1 2.2l-1.8 0.2c-2.2667 0-4.3667-0.69999-6.3-2.1s-3.4333-3.3-4.5-5.7l-37.2-82.4c-0.93334-2.1333-1.4-4.2667-1.4-6.4 0-2.6667 1.1333-5.1 3.4-7.3s5.0666-3.3 8.4-3.3c2.5334 0 4.8667 0.66666 7 2s3.7333 3.2 4.8 5.6l27.6 63.2 27.4-63c1.0667-2.5334 2.5333-4.4667 4.4-5.8s3.9333-1.9333 6.2-1.8zm116.4-2.2c3.4667 0 6.3333 1.1333 8.6 3.4s3.4 5.2 3.4 8.8v84.6c0 3.4667-1.1333 6.3666-3.4 8.7s-5.1333 3.5-8.6 3.5-6.3-1.1333-8.5-3.4-3.3667-5.1333-3.5-8.6c-3.3334 3.8667-7.8333 7.1666-13.5 9.9-5.6667 2.7334-11.633 4.1-17.9 4.1-9.2 0-17.533-2.3666-25-7.1s-13.367-11.3-17.7-19.7c-4.3334-8.4-6.5-17.933-6.5-28.6s2.1333-20.233 6.4-28.7 10.1-15.067 17.5-19.8 15.567-7.1 24.5-7.1c6.4 0 12.4 1.1666 18 3.5s10.333 5.3 14.2 8.9v-0.2c0-3.4667 1.1333-6.3666 3.4-8.7s5.1333-3.5 8.6-3.5zm-40.4 89c8.6667 0 15.733-3.1666 21.2-9.5s8.2-14.3 8.2-23.9-2.7333-17.6-8.2-24-12.533-9.6-21.2-9.6c-8.5334 0-15.533 3.2-21 9.6s-8.2 14.4-8.2 24 2.7 17.567 8.1 23.9 12.433 9.5 21.1 9.5zm72.2 3.4c-1.2-1.6-1.8-3.6-1.8-6 0-3.4667 1.7333-6.4 5.2-8.8 1.8667-1.2 3.8-1.8 5.8-1.8 2.8 0 5.4666 1.2666 8 3.8 4 4.1334 8.1666 7.2 12.5 9.2 4.3334 2 9.5666 3 15.7 3 10.4-0.4 15.6-4.3333 15.6-11.8 0-3.8667-1.7666-6.8-5.3-8.8s-9.0333-4-16.5-6c-7.7334-2.1333-14.033-4.2667-18.9-6.4s-9.0666-5.3666-12.6-9.7-5.3-10.167-5.3-17.5c0-6.4 1.8333-11.967 5.5-16.7s8.4666-8.4 14.4-11 12.233-3.9 18.9-3.9c6.8 0 13.6 1.2666 20.4 3.8s12.133 6.2666 16 11.2c1.7333 2.1333 2.6 4.5333 2.6 7.2 0 3.0667-1.2666 5.6-3.8 7.6-1.8667 1.4667-4 2.2-6.4 2.2-2.9334 0-5.3333-0.93332-7.2-2.8-2.4-2.9334-5.5-5.2667-9.3-7s-8.1-2.6-12.9-2.6c-10.133 0-15.2 3.6666-15.2 11 0 2.9334 0.93332 5.3 2.8 7.1s4.2333 3.2 7.1 4.2c2.8667 1 6.9 2.2333 12.1 3.7 7.2 2 13.2 4.0667 18 6.2s8.8666 5.4 12.2 9.8 5 10.2 5 17.4c0 6.5334-1.9333 12.233-5.8 17.1s-8.8333 8.5666-14.9 11.1-12.3 3.8-18.7 3.8c-8.8 0-17-1.4666-24.6-4.4s-13.8-7.6666-18.6-14.2zm113.2 16.4c-3.8667 0-6.8333-1.0333-8.9-3.1s-3.1-5.0333-3.1-8.9v-3.4c0-3.8667 1.0333-6.8333 3.1-8.9s5.0333-3.1 8.9-3.1h2.6c3.8667 0 6.8333 1.0333 8.9 3.1s3.1 5.0333 3.1 8.9v3.4c0 3.8667-1.0333 6.8333-3.1 8.9s-5.0333 3.1-8.9 3.1h-2.6zm125.8-108.8c3.4667 0 6.3333 1.1333 8.6 3.4s3.4 5.2 3.4 8.8v84.6c0 3.4667-1.1333 6.3666-3.4 8.7s-5.1333 3.5-8.6 3.5-6.3-1.1333-8.5-3.4-3.3667-5.1333-3.5-8.6c-3.3334 3.8667-7.8333 7.1666-13.5 9.9-5.6667 2.7334-11.633 4.1-17.9 4.1-9.2 0-17.533-2.3666-25-7.1s-13.367-11.3-17.7-19.7c-4.3334-8.4-6.5-17.933-6.5-28.6s2.1333-20.233 6.4-28.7 10.1-15.067 17.5-19.8 15.567-7.1 24.5-7.1c6.4 0 12.4 1.1666 18 3.5s10.333 5.3 14.2 8.9v-0.2c0-3.4667 1.1333-6.3666 3.4-8.7s5.1333-3.5 8.6-3.5zm-40.4 89c8.6667 0 15.733-3.1666 21.2-9.5s8.2-14.3 8.2-23.9-2.7333-17.6-8.2-24-12.533-9.6-21.2-9.6c-8.5334 0-15.533 3.2-21 9.6s-8.2 14.4-8.2 24 2.7 17.567 8.1 23.9 12.433 9.5 21.1 9.5zm133.8-89c9.2 0 17.533 2.3666 25 7.1s13.367 11.3 17.7 19.7c4.3334 8.4 6.5 17.933 6.5 28.6s-2.1333 20.233-6.4 28.7-10.1 15.067-17.5 19.8-15.567 7.1-24.5 7.1c-6.4 0-12.433-1.3-18.1-3.9s-10.367-5.7666-14.1-9.5v39.2c0 3.4667-1.1333 6.3666-3.4 8.7s-5.1333 3.5-8.6 3.5-6.3333-1.1333-8.6-3.4-3.4-5.2-3.4-8.8v-122.6c0-3.4667 1.1333-6.3666 3.4-8.7s5.1333-3.5 8.6-3.5 6.3333 1.1666 8.6 3.5 3.4 5.2333 3.4 8.7v0.8c3.2-4 7.6666-7.5 13.4-10.5s11.733-4.5 18-4.5zm-3 89c8.5334 0 15.533-3.2 21-9.6s8.2-14.4 8.2-24-2.7-17.567-8.1-23.9-12.433-9.5-21.1-9.5-15.733 3.1666-21.2 9.5-8.2 14.3-8.2 23.9 2.7333 17.6 8.2 24 12.533 9.6 21.2 9.6zm127.6-89c9.2 0 17.533 2.3666 25 7.1s13.367 11.3 17.7 19.7c4.3334 8.4 6.5 17.933 6.5 28.6s-2.1333 20.233-6.4 28.7-10.1 15.067-17.5 19.8-15.567 7.1-24.5 7.1c-6.4 0-12.433-1.3-18.1-3.9-5.6667-2.6-10.367-5.7666-14.1-9.5v39.2c0 3.4667-1.1333 6.3666-3.4 8.7s-5.1333 3.5-8.6 3.5-6.3333-1.1333-8.6-3.4-3.4-5.2-3.4-8.8v-122.6c0-3.4667 1.1333-6.3666 3.4-8.7s5.1333-3.5 8.6-3.5 6.3333 1.1666 8.6 3.5 3.4 5.2333 3.4 8.7v0.8c3.2-4 7.6666-7.5 13.4-10.5s11.733-4.5 18-4.5zm-3 89c8.5334 0 15.533-3.2 21-9.6s8.2-14.4 8.2-24-2.7-17.567-8.1-23.9-12.433-9.5-21.1-9.5-15.733 3.1666-21.2 9.5-8.2 14.3-8.2 23.9 2.7333 17.6 8.2 24 12.533 9.6 21.2 9.6z" fill="#2C3E50"/>
<g transform="translate(601 83)">
<rect x="372.22" width="40.562" height="78.721" fill="#C0392B"/>
<polygon points="285.39 670.32 333.11 670.32 205.2 854 157.48 854" fill="#C0392B"/>
<polygon transform="translate(541.16 762.16) scale(-1 1) translate(-541.16 -762.16)" points="581.26 670.32 628.98 670.32 501.06 854 453.34 854" fill="#C0392B"/>
<polygon points="32.701 143.13 752.3 143.13 785 605.91 0 605.91" fill="#2C3E50"/>
<rect x="73.967" y="617.84" width="637.07" height="40.553" fill="#C0392B"/>
<rect x="181.34" y="90.648" width="422.33" height="40.553" fill="#C0392B"/>
</g>
<path d="m141.5 1185.5h580.5" stroke="#C0392B" stroke-linecap="square" stroke-width="12"/>
<path d="m734 1185.5h872" stroke="#2C3E50" stroke-linecap="square" stroke-width="12"/>
<path d="m1659 1185.5h72" stroke="#2C3E50" stroke-linecap="square" stroke-width="12"/>
<path d="m1784 1185.5h68" stroke="#2C3E50" stroke-linecap="square" stroke-width="12"/>
</g>
</svg>
