<?xml version="1.0" encoding="UTF-8"?>
<svg version="1.1" viewBox="0 0 2884 500" xmlns="http://www.w3.org/2000/svg">
<title>LogoModelCanvasApp</title>
<desc>Created with Sketch.</desc>
<g fill="none" fill-rule="evenodd">
<path d="m1411.7 157.19c5.952 3.072 8.928 7.968 8.928 14.688 0 4.032-1.44 7.968-4.32 11.808-3.072 4.032-7.008 6.048-11.808 6.048-3.264 0-6.528-0.86399-9.792-2.592-9.408-4.416-19.584-6.624-30.528-6.624-13.44 0-25.152 2.832-35.136 8.496s-17.664 13.632-23.04 23.904-8.064 22.032-8.064 35.28c0 22.656 6.0959 39.84 18.288 51.552s28.176 17.568 47.952 17.568c11.712 0 21.888-2.208 30.528-6.624 3.456-1.536 6.528-2.304 9.216-2.304 4.992 0 9.216 2.112 12.672 6.336 2.88 3.648 4.32 7.584 4.32 11.808 0 3.072-0.76799 5.856-2.304 8.352s-3.744 4.416-6.624 5.76c-14.976 7.488-30.912 11.232-47.808 11.232-18.816 0-36.096-3.984-51.84-11.952s-28.32-19.728-37.728-35.28-14.112-34.368-14.112-56.448c0-19.584 4.464-37.152 13.392-52.704s21.264-27.696 37.008-36.432 33.504-13.104 53.28-13.104c17.088 0 32.928 3.744 47.52 11.232zm161.28 34.848c4.992 0 9.12 1.632 12.384 4.896s4.896 7.488 4.896 12.672v121.82c0 4.992-1.632 9.168-4.896 12.528s-7.392 5.04-12.384 5.04-9.072-1.632-12.24-4.896-4.848-7.392-5.04-12.384c-4.8 5.568-11.28 10.32-19.44 14.256s-16.752 5.904-25.776 5.904c-13.248 0-25.248-3.408-36-10.224s-19.248-16.272-25.488-28.368-9.36-25.824-9.36-41.184 3.072-29.136 9.216-41.328 14.544-21.696 25.2-28.512 22.416-10.224 35.28-10.224c9.216 0 17.856 1.68 25.92 5.04s14.88 7.632 20.448 12.816v-0.288c0-4.992 1.632-9.168 4.896-12.528s7.392-5.04 12.384-5.04zm-58.176 128.16c12.48 0 22.656-4.56 30.528-13.68s11.808-20.592 11.808-34.416-3.936-25.344-11.808-34.56-18.048-13.824-30.528-13.824c-12.288 0-22.368 4.608-30.24 13.824s-11.808 20.736-11.808 34.56 3.888 25.296 11.664 34.416 17.904 13.68 30.384 13.68zm195.26-128.16c19.584 0 33.12 5.8079 40.608 17.424s11.232 27.696 11.232 48.24v73.728c0 4.992-1.632 9.168-4.896 12.528s-7.392 5.04-12.384 5.04-9.12-1.68-12.384-5.04-4.896-7.536-4.896-12.528v-73.728c0-10.56-2.208-18.864-6.624-24.912s-12-9.072-22.752-9.072c-11.136 0-19.872 3.216-26.208 9.648s-9.504 14.544-9.504 24.336v73.728c0 4.992-1.632 9.168-4.896 12.528s-7.392 5.04-12.384 5.04-9.12-1.68-12.384-5.04-4.896-7.536-4.896-12.528v-118.94c0-4.992 1.632-9.168 4.896-12.528s7.392-5.04 12.384-5.04 9.12 1.68 12.384 5.04 4.896 7.536 4.896 12.528v4.896c5.184-6.912 11.952-12.864 20.304-17.856s17.52-7.488 27.504-7.488zm206.21 3.168c4.608 0 8.448 1.488 11.52 4.464s4.608 6.672 4.608 11.088c0 2.304-0.76799 5.184-2.304 8.64l-53.856 118.66c-1.344 3.264-3.312 5.856-5.904 7.776s-5.52 2.976-8.784 3.168l-2.592 0.288c-3.264 0-6.288-1.008-9.072-3.024s-4.944-4.752-6.48-8.208l-53.568-118.66c-1.344-3.072-2.016-6.144-2.016-9.216 0-3.84 1.632-7.344 4.896-10.512s7.296-4.752 12.096-4.752c3.648 0 7.008 0.95999 10.08 2.88s5.376 4.608 6.912 8.064l39.744 91.008 39.456-90.72c1.536-3.648 3.648-6.432 6.336-8.352s5.664-2.784 8.928-2.592zm167.62-3.168c4.992 0 9.12 1.632 12.384 4.896s4.896 7.488 4.896 12.672v121.82c0 4.992-1.632 9.168-4.896 12.528s-7.392 5.04-12.384 5.04-9.072-1.632-12.24-4.896-4.848-7.392-5.04-12.384c-4.8 5.568-11.28 10.32-19.44 14.256s-16.752 5.904-25.776 5.904c-13.248 0-25.248-3.408-36-10.224s-19.248-16.272-25.488-28.368-9.36-25.824-9.36-41.184 3.072-29.136 9.216-41.328 14.544-21.696 25.2-28.512 22.416-10.224 35.28-10.224c9.216 0 17.856 1.68 25.92 5.04s14.88 7.632 20.448 12.816v-0.288c0-4.992 1.632-9.168 4.896-12.528s7.392-5.04 12.384-5.04zm-58.176 128.16c12.48 0 22.656-4.56 30.528-13.68s11.808-20.592 11.808-34.416-3.936-25.344-11.808-34.56-18.048-13.824-30.528-13.824c-12.288 0-22.368 4.608-30.24 13.824s-11.808 20.736-11.808 34.56 3.888 25.296 11.664 34.416 17.904 13.68 30.384 13.68zm103.97 4.896c-1.728-2.304-2.592-5.184-2.592-8.64 0-4.992 2.496-9.216 7.488-12.672 2.688-1.728 5.472-2.592 8.352-2.592 4.032 0 7.872 1.824 11.52 5.472 5.76 5.952 11.76 10.368 18 13.248s13.776 4.32 22.608 4.32c14.976-0.576 22.464-6.2399 22.464-16.992 0-5.568-2.544-9.792-7.632-12.672s-13.008-5.76-23.76-8.64c-11.136-3.072-20.208-6.144-27.216-9.216s-13.056-7.728-18.144-13.968-7.632-14.64-7.632-25.2c0-9.216 2.64-17.232 7.92-24.048s12.192-12.096 20.736-15.84 17.616-5.616 27.216-5.616c9.792 0 19.584 1.824 29.376 5.472s17.472 9.024 23.04 16.128c2.496 3.072 3.744 6.528 3.744 10.368 0 4.416-1.824 8.064-5.472 10.944-2.688 2.112-5.76 3.168-9.216 3.168-4.224 0-7.68-1.344-10.368-4.032-3.456-4.224-7.92-7.584-13.392-10.08s-11.664-3.744-18.576-3.744c-14.592 0-21.888 5.2799-21.888 15.84 0 4.224 1.344 7.632 4.032 10.224s6.096 4.608 10.224 6.048 9.936 3.216 17.424 5.328c10.368 2.88 19.008 5.856 25.92 8.928s12.768 7.776 17.568 14.112 7.2 14.688 7.2 25.056c0 9.408-2.784 17.616-8.352 24.624s-12.72 12.336-21.456 15.984-17.712 5.472-26.928 5.472c-12.672 0-24.48-2.112-35.424-6.336s-19.872-11.04-26.784-20.448zm163.01 23.616c-5.568 0-9.84-1.488-12.816-4.464s-4.464-7.248-4.464-12.816v-4.896c0-5.568 1.488-9.84 4.464-12.816s7.248-4.464 12.816-4.464h3.744c5.568 0 9.84 1.488 12.816 4.464s4.464 7.248 4.464 12.816v4.896c0 5.568-1.488 9.84-4.464 12.816s-7.248 4.464-12.816 4.464h-3.744zm181.15-156.67c4.992 0 9.12 1.632 12.384 4.896s4.896 7.488 4.896 12.672v121.82c0 4.992-1.632 9.168-4.896 12.528s-7.392 5.04-12.384 5.04-9.072-1.632-12.24-4.896-4.848-7.392-5.04-12.384c-4.8 5.568-11.28 10.32-19.44 14.256s-16.752 5.904-25.776 5.904c-13.248 0-25.248-3.408-36-10.224s-19.248-16.272-25.488-28.368-9.36-25.824-9.36-41.184 3.072-29.136 9.216-41.328 14.544-21.696 25.2-28.512 22.416-10.224 35.28-10.224c9.216 0 17.856 1.68 25.92 5.04s14.88 7.632 20.448 12.816v-0.288c0-4.992 1.632-9.168 4.896-12.528s7.392-5.04 12.384-5.04zm-58.176 128.16c12.48 0 22.656-4.56 30.528-13.68s11.808-20.592 11.808-34.416-3.936-25.344-11.808-34.56-18.048-13.824-30.528-13.824c-12.288 0-22.368 4.608-30.24 13.824s-11.808 20.736-11.808 34.56 3.888 25.296 11.664 34.416 17.904 13.68 30.384 13.68zm192.67-128.16c13.248 0 25.248 3.408 36 10.224s19.248 16.272 25.488 28.368 9.36 25.824 9.36 41.184-3.072 29.136-9.216 41.328-14.544 21.696-25.2 28.512-22.416 10.224-35.28 10.224c-9.216 0-17.904-1.872-26.064-5.616s-14.928-8.304-20.304-13.68v56.448c0 4.992-1.632 9.168-4.896 12.528s-7.392 5.04-12.384 5.04-9.12-1.632-12.384-4.896-4.896-7.488-4.896-12.672v-176.54c0-4.992 1.632-9.168 4.896-12.528s7.392-5.04 12.384-5.04 9.12 1.68 12.384 5.04 4.896 7.536 4.896 12.528v1.152c4.608-5.76 11.04-10.8 19.296-15.12s16.896-6.48 25.92-6.48zm-4.32 128.16c12.288 0 22.368-4.608 30.24-13.824s11.808-20.736 11.808-34.56-3.888-25.296-11.664-34.416-17.904-13.68-30.384-13.68-22.656 4.56-30.528 13.68-11.808 20.592-11.808 34.416 3.936 25.344 11.808 34.56 18.048 13.824 30.528 13.824zm183.74-128.16c13.248 0 25.248 3.408 36 10.224s19.248 16.272 25.488 28.368 9.36 25.824 9.36 41.184-3.072 29.136-9.216 41.328-14.544 21.696-25.2 28.512-22.416 10.224-35.28 10.224c-9.216 0-17.904-1.872-26.064-5.616s-14.928-8.304-20.304-13.68v56.448c0 4.992-1.632 9.168-4.896 12.528s-7.392 5.04-12.384 5.04-9.12-1.632-12.384-4.896-4.896-7.488-4.896-12.672v-176.54c0-4.992 1.632-9.168 4.896-12.528s7.392-5.04 12.384-5.04 9.12 1.68 12.384 5.04 4.896 7.536 4.896 12.528v1.152c4.608-5.76 11.04-10.8 19.296-15.12s16.896-6.48 25.92-6.48zm-4.32 128.16c12.288 0 22.368-4.608 30.24-13.824s11.808-20.736 11.808-34.56-3.888-25.296-11.664-34.416-17.904-13.68-30.384-13.68-22.656 4.56-30.528 13.68-11.808 20.592-11.808 34.416 3.936 25.344 11.808 34.56 18.048 13.824 30.528 13.824z" fill="#2C3E50"/>
<path d="m580.42 192.04c19.008 0 32.16 5.8079 39.456 17.424s10.944 27.696 10.944 48.24v73.728c0 4.992-1.632 9.168-4.896 12.528s-7.392 5.04-12.384 5.04-9.12-1.68-12.384-5.04-4.896-7.536-4.896-12.528v-73.728c0-10.56-2.064-18.864-6.192-24.912s-11.376-9.072-21.744-9.072c-10.752 0-19.152 3.216-25.2 9.648s-9.072 14.544-9.072 24.336v73.728c0 4.992-1.632 9.168-4.896 12.528s-7.392 5.04-12.384 5.04-9.12-1.68-12.384-5.04-4.896-7.536-4.896-12.528v-73.728c0-10.56-2.064-18.864-6.192-24.912s-11.376-9.072-21.744-9.072c-10.752 0-19.152 3.216-25.2 9.648s-9.072 14.544-9.072 24.336v73.728c0 4.992-1.632 9.168-4.896 12.528s-7.392 5.04-12.384 5.04-9.12-1.68-12.384-5.04-4.896-7.536-4.896-12.528v-118.94c0-4.992 1.632-9.168 4.896-12.528s7.392-5.04 12.384-5.04 9.12 1.68 12.384 5.04 4.896 7.536 4.896 12.528v4.608c5.184-6.912 11.76-12.816 19.728-17.712s16.848-7.344 26.64-7.344c24.192 0 39.648 10.56 46.368 31.68 4.416-8.064 11.088-15.36 20.016-21.888s19.056-9.792 30.384-9.792zm235.87 80.064c0 15.36-3.456 29.136-10.368 41.328s-16.368 21.648-28.368 28.368-25.2 10.08-39.6 10.08c-14.592 0-27.84-3.36-39.744-10.08s-21.312-16.176-28.224-28.368-10.368-25.968-10.368-41.328 3.456-29.136 10.368-41.328 16.32-21.696 28.224-28.512 25.152-10.224 39.744-10.224c14.4 0 27.6 3.408 39.6 10.224s21.456 16.32 28.368 28.512 10.368 25.968 10.368 41.328zm-34.56 0c0-9.408-1.968-17.808-5.904-25.2s-9.216-13.104-15.84-17.136-13.968-6.048-22.032-6.048-15.408 2.016-22.032 6.048-11.904 9.744-15.84 17.136-5.904 15.792-5.904 25.2 1.968 17.76 5.904 25.056 9.216 12.96 15.84 16.992 13.968 6.048 22.032 6.048 15.408-2.016 22.032-6.048 11.904-9.696 15.84-16.992 5.904-15.648 5.904-25.056zm188.06-136.22c4.992 0 9.12 1.632 12.384 4.896s4.896 7.488 4.896 12.672v177.98c0 4.992-1.632 9.168-4.896 12.528s-7.392 5.04-12.384 5.04-9.072-1.632-12.24-4.896-4.848-7.392-5.04-12.384c-4.8 5.568-11.28 10.32-19.44 14.256s-16.752 5.904-25.776 5.904c-13.248 0-25.248-3.408-36-10.224s-19.248-16.272-25.488-28.368-9.36-25.824-9.36-41.184 3.072-29.136 9.216-41.328 14.544-21.696 25.2-28.512 22.416-10.224 35.28-10.224c9.216 0 17.856 1.68 25.92 5.04s14.88 7.632 20.448 12.816v-56.448c0-4.992 1.632-9.168 4.896-12.528s7.392-5.04 12.384-5.04zm-58.176 184.32c12.48 0 22.656-4.56 30.528-13.68s11.808-20.592 11.808-34.416-3.936-25.344-11.808-34.56-18.048-13.824-30.528-13.824c-12.288 0-22.368 4.608-30.24 13.824s-11.808 20.736-11.808 34.56 3.888 25.296 11.664 34.416 17.904 13.68 30.384 13.68zm251.14-51.84c-0.192 4.608-2.016 8.352-5.472 11.232s-7.488 4.32-12.096 4.32h-95.04c2.304 11.328 7.584 20.208 15.84 26.64s17.568 9.648 27.936 9.648c7.872 0 14.016-0.71999 18.432-2.16s7.92-2.976 10.512-4.608 4.368-2.736 5.328-3.312c3.456-1.728 6.72-2.592 9.792-2.592 4.032 0 7.488 1.44 10.368 4.32s4.32 6.24 4.32 10.08c0 5.184-2.688 9.888-8.064 14.112-5.376 4.416-12.576 8.16-21.6 11.232s-18.144 4.608-27.36 4.608c-16.128 0-30.192-3.36-42.192-10.08s-21.264-15.984-27.792-27.792-9.792-25.104-9.792-39.888c0-16.512 3.456-31.008 10.368-43.488s16.032-22.032 27.36-28.656 23.424-9.936 36.288-9.936c12.672 0 24.624 3.456 35.856 10.368s20.208 16.224 26.928 27.936 10.08 24.384 10.08 38.016zm-72.864-44.64c-22.272 0-35.424 10.464-39.456 31.392h75.456v-2.016c-0.768-8.064-4.704-14.976-11.808-20.736s-15.168-8.64-24.192-8.64zm139.1 107.71c0 4.992-1.68 9.168-5.04 12.528s-7.536 5.04-12.528 5.04c-4.8 0-8.832-1.68-12.096-5.04s-4.896-7.536-4.896-12.528v-177.98c0-4.992 1.68-9.168 5.04-12.528s7.536-5.04 12.528-5.04c4.8 0 8.832 1.68 12.096 5.04s4.896 7.536 4.896 12.528v177.98z" fill="#C0392B"/>
<g transform="translate(37 56)">
<rect x="156" width="17" height="33" fill="#C0392B"/>
<polygon points="119.61 281 139.61 281 86 358 66 358" fill="#C0392B"/>
<polygon transform="translate(226.8 319.5) scale(-1 1) translate(-226.8 -319.5)" points="243.61 281 263.61 281 210 358 190 358" fill="#C0392B"/>
<polygon points="13.705 60 315.29 60 329 254 0 254" fill="#2C3E50"/>
<rect x="31" y="259" width="267" height="17" fill="#C0392B"/>
<rect x="76" y="38" width="177" height="17" fill="#C0392B"/>
</g>
</g>
</svg>
