<?xml version="1.0" encoding="UTF-8"?>
<svg width="2000px" height="1308px" viewBox="0 0 2000 1308" version="1.1" xmlns="http://www.w3.org/2000/svg" xmlns:xlink="http://www.w3.org/1999/xlink">
    <!-- Generator: Sketch 50.2 (55047) - http://www.bohemiancoding.com/sketch -->
    <title>LogoModelCanvasVertical</title>
    <desc>Created with Sketch.</desc>
    <defs></defs>
    <g id="LogoModelCanvasVertical" stroke="none" stroke-width="1" fill="none" fill-rule="evenodd">
        <path d="M266.5,1050 C279.700066,1050 288.833308,1054.03329 293.9,1062.1 C298.966692,1070.16671 301.5,1081.33326 301.5,1095.6 L301.5,1146.8 C301.5,1150.26668 300.366678,1153.16665 298.1,1155.5 C295.833322,1157.83335 292.966684,1159 289.5,1159 C286.033316,1159 283.166678,1157.83335 280.9,1155.5 C278.633322,1153.16665 277.5,1150.26668 277.5,1146.8 L277.5,1095.6 C277.5,1088.26663 276.066681,1082.50002 273.2,1078.3 C270.333319,1074.09998 265.300036,1072 258.1,1072 C250.633296,1072 244.800021,1074.23331 240.6,1078.7 C236.399979,1083.16669 234.3,1088.79997 234.3,1095.6 L234.3,1146.8 C234.3,1150.26668 233.166678,1153.16665 230.9,1155.5 C228.633322,1157.83335 225.766684,1159 222.3,1159 C218.833316,1159 215.966678,1157.83335 213.7,1155.5 C211.433322,1153.16665 210.3,1150.26668 210.3,1146.8 L210.3,1095.6 C210.3,1088.26663 208.866681,1082.50002 206,1078.3 C203.133319,1074.09998 198.100036,1072 190.9,1072 C183.433296,1072 177.600021,1074.23331 173.4,1078.7 C169.199979,1083.16669 167.1,1088.79997 167.1,1095.6 L167.1,1146.8 C167.1,1150.26668 165.966678,1153.16665 163.7,1155.5 C161.433322,1157.83335 158.566684,1159 155.1,1159 C151.633316,1159 148.766678,1157.83335 146.5,1155.5 C144.233322,1153.16665 143.1,1150.26668 143.1,1146.8 L143.1,1064.2 C143.1,1060.73332 144.233322,1057.83335 146.5,1055.5 C148.766678,1053.16665 151.633316,1052 155.1,1052 C158.566684,1052 161.433322,1053.16665 163.7,1055.5 C165.966678,1057.83335 167.1,1060.73332 167.1,1064.2 L167.1,1067.4 C170.700018,1062.59998 175.266639,1058.50002 180.8,1055.1 C186.333361,1051.69998 192.499966,1050 199.3,1050 C216.100084,1050 226.83331,1057.33326 231.5,1072 C234.566682,1066.39997 239.199969,1061.33336 245.4,1056.8 C251.600031,1052.26664 258.633294,1050 266.5,1050 Z M430.3,1105.6 C430.3,1116.26672 427.900024,1125.83329 423.1,1134.3 C418.299976,1142.76671 411.733375,1149.33331 403.4,1154 C395.066625,1158.66669 385.90005,1161 375.9,1161 C365.766616,1161 356.566708,1158.66669 348.3,1154 C340.033292,1149.33331 333.500024,1142.76671 328.7,1134.3 C323.899976,1125.83329 321.5,1116.26672 321.5,1105.6 C321.5,1094.93328 323.899976,1085.36671 328.7,1076.9 C333.500024,1068.43329 340.033292,1061.83336 348.3,1057.1 C356.566708,1052.36664 365.766616,1050 375.9,1050 C385.90005,1050 395.066625,1052.36664 403.4,1057.1 C411.733375,1061.83336 418.299976,1068.43329 423.1,1076.9 C427.900024,1085.36671 430.3,1094.93328 430.3,1105.6 Z M406.3,1105.6 C406.3,1099.06663 404.933347,1093.23336 402.2,1088.1 C399.466653,1082.96664 395.800023,1079.00001 391.2,1076.2 C386.599977,1073.39999 381.500028,1072 375.9,1072 C370.299972,1072 365.200023,1073.39999 360.6,1076.2 C355.999977,1079.00001 352.333347,1082.96664 349.6,1088.1 C346.866653,1093.23336 345.5,1099.06663 345.5,1105.6 C345.5,1112.13337 346.866653,1117.93331 349.6,1123 C352.333347,1128.06669 355.999977,1131.99999 360.6,1134.8 C365.200023,1137.60001 370.299972,1139 375.9,1139 C381.500028,1139 386.599977,1137.60001 391.2,1134.8 C395.800023,1131.99999 399.466653,1128.06669 402.2,1123 C404.933347,1117.93331 406.3,1112.13337 406.3,1105.6 Z M536.9,1011 C540.366684,1011 543.233322,1012.13332 545.5,1014.4 C547.766678,1016.66668 548.9,1019.59998 548.9,1023.2 L548.9,1146.8 C548.9,1150.26668 547.766678,1153.16665 545.5,1155.5 C543.233322,1157.83335 540.366684,1159 536.9,1159 C533.433316,1159 530.600011,1157.86668 528.4,1155.6 C526.199989,1153.33332 525.033334,1150.46668 524.9,1147 C521.56665,1150.86669 517.066695,1154.16665 511.4,1156.9 C505.733305,1159.63335 499.766698,1161 493.5,1161 C484.299954,1161 475.966704,1158.63336 468.5,1153.9 C461.033296,1149.16664 455.133355,1142.60004 450.8,1134.2 C446.466645,1125.79996 444.3,1116.26672 444.3,1105.6 C444.3,1094.93328 446.433312,1085.36671 450.7,1076.9 C454.966688,1068.43329 460.799963,1061.83336 468.2,1057.1 C475.600037,1052.36664 483.766622,1050 492.7,1050 C499.100032,1050 505.099972,1051.16665 510.7,1053.5 C516.300028,1055.83335 521.033314,1058.79998 524.9,1062.4 L524.9,1023.2 C524.9,1019.73332 526.033322,1016.83335 528.3,1014.5 C530.566678,1012.16665 533.433316,1011 536.9,1011 Z M496.5,1139 C505.16671,1139 512.233306,1135.83336 517.7,1129.5 C523.166694,1123.16664 525.9,1115.20005 525.9,1105.6 C525.9,1095.99995 523.166694,1088.00003 517.7,1081.6 C512.233306,1075.19997 505.16671,1072 496.5,1072 C487.966624,1072 480.966694,1075.19997 475.5,1081.6 C470.033306,1088.00003 467.3,1095.99995 467.3,1105.6 C467.3,1115.20005 469.999973,1123.16664 475.4,1129.5 C480.800027,1135.83336 487.83329,1139 496.5,1139 Z M670.9,1103 C670.766666,1106.20002 669.500012,1108.79999 667.1,1110.8 C664.699988,1112.80001 661.900016,1113.8 658.7,1113.8 L592.7,1113.8 C594.300008,1121.66671 597.966638,1127.83331 603.7,1132.3 C609.433362,1136.76669 615.899964,1139 623.1,1139 C628.566694,1139 632.833318,1138.5 635.9,1137.5 C638.966682,1136.5 641.399991,1135.43334 643.2,1134.3 C645.000009,1133.16666 646.23333,1132.4 646.9,1132 C649.300012,1130.79999 651.566656,1130.2 653.7,1130.2 C656.500014,1130.2 658.89999,1131.19999 660.9,1133.2 C662.90001,1135.20001 663.9,1137.53332 663.9,1140.2 C663.9,1143.80002 662.033352,1147.06665 658.3,1150 C654.566648,1153.06668 649.566698,1155.66666 643.3,1157.8 C637.033302,1159.93334 630.700032,1161 624.3,1161 C613.099944,1161 603.333375,1158.66669 595,1154 C586.666625,1149.33331 580.233356,1142.90004 575.7,1134.7 C571.166644,1126.49996 568.9,1117.26672 568.9,1107 C568.9,1095.53328 571.299976,1085.46671 576.1,1076.8 C580.900024,1068.13329 587.233294,1061.50002 595.1,1056.9 C602.966706,1052.29998 611.366622,1050 620.3,1050 C629.100044,1050 637.399961,1052.39998 645.2,1057.2 C653.000039,1062.00002 659.23331,1068.46663 663.9,1076.6 C668.56669,1084.73337 670.9,1093.53329 670.9,1103 Z M620.3,1072 C604.833256,1072 595.700014,1079.26659 592.9,1093.8 L645.3,1093.8 L645.3,1092.4 C644.766664,1086.79997 642.033358,1082.00002 637.1,1078 C632.166642,1073.99998 626.566698,1072 620.3,1072 Z M716.9,1146.8 C716.9,1150.26668 715.733345,1153.16665 713.4,1155.5 C711.066655,1157.83335 708.166684,1159 704.7,1159 C701.36665,1159 698.566678,1157.83335 696.3,1155.5 C694.033322,1153.16665 692.9,1150.26668 692.9,1146.8 L692.9,1023.2 C692.9,1019.73332 694.066655,1016.83335 696.4,1014.5 C698.733345,1012.16665 701.633316,1011 705.1,1011 C708.43335,1011 711.233322,1012.16665 713.5,1014.5 C715.766678,1016.83335 716.9,1019.73332 716.9,1023.2 L716.9,1146.8 Z" id="model" fill="#C0392B"></path>
        <path d="M845.1,1025.8 C849.233354,1027.93334 851.3,1031.33331 851.3,1036 C851.3,1038.80001 850.30001,1041.53332 848.3,1044.2 C846.166656,1047.00001 843.43335,1048.4 840.1,1048.4 C837.833322,1048.4 835.566678,1047.80001 833.3,1046.6 C826.766634,1043.53332 819.700038,1042 812.1,1042 C802.76662,1042 794.633368,1043.96665 787.7,1047.9 C780.766632,1051.83335 775.433352,1057.36663 771.7,1064.5 C767.966648,1071.63337 766.1,1079.79995 766.1,1089 C766.1,1104.73341 770.333291,1116.66663 778.8,1124.8 C787.266709,1132.93337 798.366598,1137 812.1,1137 C820.233374,1137 827.29997,1135.46668 833.3,1132.4 C835.700012,1131.33333 837.833324,1130.8 839.7,1130.8 C843.166684,1130.8 846.099988,1132.26665 848.5,1135.2 C850.50001,1137.73335 851.5,1140.46665 851.5,1143.4 C851.5,1145.53334 850.966672,1147.46666 849.9,1149.2 C848.833328,1150.93334 847.30001,1152.26666 845.3,1153.2 C834.899948,1158.40003 823.833392,1161 812.1,1161 C799.033268,1161 787.033388,1158.23336 776.1,1152.7 C765.166612,1147.16664 756.433366,1139.00005 749.9,1128.2 C743.366634,1117.39995 740.1,1104.33341 740.1,1089 C740.1,1075.39993 743.199969,1063.20005 749.4,1052.4 C755.600031,1041.59995 764.166612,1033.1667 775.1,1027.1 C786.033388,1021.0333 798.366598,1018 812.1,1018 C823.966726,1018 834.966616,1020.59997 845.1,1025.8 Z M957.1,1050 C960.566684,1050 963.433322,1051.13332 965.7,1053.4 C967.966678,1055.66668 969.1,1058.59998 969.1,1062.2 L969.1,1146.8 C969.1,1150.26668 967.966678,1153.16665 965.7,1155.5 C963.433322,1157.83335 960.566684,1159 957.1,1159 C953.633316,1159 950.800011,1157.86668 948.6,1155.6 C946.399989,1153.33332 945.233334,1150.46668 945.1,1147 C941.76665,1150.86669 937.266695,1154.16665 931.6,1156.9 C925.933305,1159.63335 919.966698,1161 913.7,1161 C904.499954,1161 896.166704,1158.63336 888.7,1153.9 C881.233296,1149.16664 875.333355,1142.60004 871,1134.2 C866.666645,1125.79996 864.5,1116.26672 864.5,1105.6 C864.5,1094.93328 866.633312,1085.36671 870.9,1076.9 C875.166688,1068.43329 880.999963,1061.83336 888.4,1057.1 C895.800037,1052.36664 903.966622,1050 912.9,1050 C919.300032,1050 925.299972,1051.16665 930.9,1053.5 C936.500028,1055.83335 941.233314,1058.79998 945.1,1062.4 L945.1,1062.2 C945.1,1058.73332 946.233322,1055.83335 948.5,1053.5 C950.766678,1051.16665 953.633316,1050 957.1,1050 Z M916.7,1139 C925.36671,1139 932.433306,1135.83336 937.9,1129.5 C943.366694,1123.16664 946.1,1115.20005 946.1,1105.6 C946.1,1095.99995 943.366694,1088.00003 937.9,1081.6 C932.433306,1075.19997 925.36671,1072 916.7,1072 C908.166624,1072 901.166694,1075.19997 895.7,1081.6 C890.233306,1088.00003 887.5,1095.99995 887.5,1105.6 C887.5,1115.20005 890.199973,1123.16664 895.6,1129.5 C901.000027,1135.83336 908.03329,1139 916.7,1139 Z M1052.3,1050 C1065.90007,1050 1075.29997,1054.03329 1080.5,1062.1 C1085.70003,1070.16671 1088.3,1081.33326 1088.3,1095.6 L1088.3,1146.8 C1088.3,1150.26668 1087.16668,1153.16665 1084.9,1155.5 C1082.63332,1157.83335 1079.76668,1159 1076.3,1159 C1072.83332,1159 1069.96668,1157.83335 1067.7,1155.5 C1065.43332,1153.16665 1064.3,1150.26668 1064.3,1146.8 L1064.3,1095.6 C1064.3,1088.26663 1062.76668,1082.50002 1059.7,1078.3 C1056.63332,1074.09998 1051.3667,1072 1043.9,1072 C1036.16663,1072 1030.10002,1074.23331 1025.7,1078.7 C1021.29998,1083.16669 1019.1,1088.79997 1019.1,1095.6 L1019.1,1146.8 C1019.1,1150.26668 1017.96668,1153.16665 1015.7,1155.5 C1013.43332,1157.83335 1010.56668,1159 1007.1,1159 C1003.63332,1159 1000.76668,1157.83335 998.5,1155.5 C996.233322,1153.16665 995.1,1150.26668 995.1,1146.8 L995.1,1064.2 C995.1,1060.73332 996.233322,1057.83335 998.5,1055.5 C1000.76668,1053.16665 1003.63332,1052 1007.1,1052 C1010.56668,1052 1013.43332,1053.16665 1015.7,1055.5 C1017.96668,1057.83335 1019.1,1060.73332 1019.1,1064.2 L1019.1,1067.6 C1022.70002,1062.79998 1027.39997,1058.66668 1033.2,1055.2 C1039.00003,1051.73332 1045.36663,1050 1052.3,1050 Z M1195.5,1052.2 C1198.70002,1052.2 1201.36666,1053.23332 1203.5,1055.3 C1205.63334,1057.36668 1206.7,1059.93332 1206.7,1063 C1206.7,1064.60001 1206.16667,1066.59999 1205.1,1069 L1167.7,1151.4 C1166.76666,1153.66668 1165.40001,1155.46666 1163.6,1156.8 C1161.79999,1158.13334 1159.76668,1158.86667 1157.5,1159 L1155.7,1159.2 C1153.43332,1159.2 1151.33334,1158.50001 1149.4,1157.1 C1147.46666,1155.69999 1145.96667,1153.80001 1144.9,1151.4 L1107.7,1069 C1106.76666,1066.86666 1106.3,1064.73334 1106.3,1062.6 C1106.3,1059.93332 1107.43332,1057.50001 1109.7,1055.3 C1111.96668,1053.09999 1114.76665,1052 1118.1,1052 C1120.63335,1052 1122.96666,1052.66666 1125.1,1054 C1127.23334,1055.33334 1128.83333,1057.19999 1129.9,1059.6 L1157.5,1122.8 L1184.9,1059.8 C1185.96667,1057.26665 1187.43332,1055.33334 1189.3,1054 C1191.16668,1052.66666 1193.23332,1052.06667 1195.5,1052.2 Z M1311.9,1050 C1315.36668,1050 1318.23332,1051.13332 1320.5,1053.4 C1322.76668,1055.66668 1323.9,1058.59998 1323.9,1062.2 L1323.9,1146.8 C1323.9,1150.26668 1322.76668,1153.16665 1320.5,1155.5 C1318.23332,1157.83335 1315.36668,1159 1311.9,1159 C1308.43332,1159 1305.60001,1157.86668 1303.4,1155.6 C1301.19999,1153.33332 1300.03333,1150.46668 1299.9,1147 C1296.56665,1150.86669 1292.06669,1154.16665 1286.4,1156.9 C1280.7333,1159.63335 1274.7667,1161 1268.5,1161 C1259.29995,1161 1250.9667,1158.63336 1243.5,1153.9 C1236.0333,1149.16664 1230.13335,1142.60004 1225.8,1134.2 C1221.46664,1125.79996 1219.3,1116.26672 1219.3,1105.6 C1219.3,1094.93328 1221.43331,1085.36671 1225.7,1076.9 C1229.96669,1068.43329 1235.79996,1061.83336 1243.2,1057.1 C1250.60004,1052.36664 1258.76662,1050 1267.7,1050 C1274.10003,1050 1280.09997,1051.16665 1285.7,1053.5 C1291.30003,1055.83335 1296.03331,1058.79998 1299.9,1062.4 L1299.9,1062.2 C1299.9,1058.73332 1301.03332,1055.83335 1303.3,1053.5 C1305.56668,1051.16665 1308.43332,1050 1311.9,1050 Z M1271.5,1139 C1280.16671,1139 1287.23331,1135.83336 1292.7,1129.5 C1298.16669,1123.16664 1300.9,1115.20005 1300.9,1105.6 C1300.9,1095.99995 1298.16669,1088.00003 1292.7,1081.6 C1287.23331,1075.19997 1280.16671,1072 1271.5,1072 C1262.96662,1072 1255.96669,1075.19997 1250.5,1081.6 C1245.03331,1088.00003 1242.3,1095.99995 1242.3,1105.6 C1242.3,1115.20005 1244.99997,1123.16664 1250.4,1129.5 C1255.80003,1135.83336 1262.83329,1139 1271.5,1139 Z M1343.7,1142.4 C1342.49999,1140.79999 1341.9,1138.80001 1341.9,1136.4 C1341.9,1132.93332 1343.63332,1130.00001 1347.1,1127.6 C1348.96668,1126.39999 1350.89999,1125.8 1352.9,1125.8 C1355.70001,1125.8 1358.36665,1127.06665 1360.9,1129.6 C1364.90002,1133.73335 1369.06664,1136.79999 1373.4,1138.8 C1377.73335,1140.80001 1382.96664,1141.8 1389.1,1141.8 C1399.50005,1141.4 1404.7,1137.4667 1404.7,1130 C1404.7,1126.13331 1402.93335,1123.20001 1399.4,1121.2 C1395.86665,1119.19999 1390.3667,1117.20001 1382.9,1115.2 C1375.16663,1113.06666 1368.86669,1110.93334 1364,1108.8 C1359.13331,1106.66666 1354.93335,1103.43336 1351.4,1099.1 C1347.86665,1094.76664 1346.1,1088.93337 1346.1,1081.6 C1346.1,1075.19997 1347.93331,1069.63336 1351.6,1064.9 C1355.26669,1060.16664 1360.06664,1056.50001 1366,1053.9 C1371.93336,1051.29999 1378.2333,1050 1384.9,1050 C1391.70003,1050 1398.49997,1051.26665 1405.3,1053.8 C1412.10003,1056.33335 1417.43331,1060.06664 1421.3,1065 C1423.03334,1067.13334 1423.9,1069.53332 1423.9,1072.2 C1423.9,1075.26668 1422.63335,1077.79999 1420.1,1079.8 C1418.23332,1081.26667 1416.10001,1082 1413.7,1082 C1410.76665,1082 1408.36668,1081.06668 1406.5,1079.2 C1404.09999,1076.26665 1401.00002,1073.93334 1397.2,1072.2 C1393.39998,1070.46666 1389.10002,1069.6 1384.3,1069.6 C1374.16662,1069.6 1369.1,1073.26663 1369.1,1080.6 C1369.1,1083.53335 1370.03332,1085.89999 1371.9,1087.7 C1373.76668,1089.50001 1376.13332,1090.89999 1379,1091.9 C1381.86668,1092.9 1385.89997,1094.13333 1391.1,1095.6 C1398.30004,1097.60001 1404.29998,1099.66666 1409.1,1101.8 C1413.90002,1103.93334 1417.96665,1107.19998 1421.3,1111.6 C1424.63335,1116.00002 1426.3,1121.79996 1426.3,1129 C1426.3,1135.53337 1424.36669,1141.23331 1420.5,1146.1 C1416.63331,1150.96669 1411.6667,1154.66665 1405.6,1157.2 C1399.5333,1159.73335 1393.30003,1161 1386.9,1161 C1378.09996,1161 1369.90004,1159.53335 1362.3,1156.6 C1354.69996,1153.66665 1348.50002,1148.93337 1343.7,1142.4 Z M1456.9,1158.8 C1453.03331,1158.8 1450.06668,1157.76668 1448,1155.7 C1445.93332,1153.63332 1444.9,1150.66669 1444.9,1146.8 L1444.9,1143.4 C1444.9,1139.53331 1445.93332,1136.56668 1448,1134.5 C1450.06668,1132.43332 1453.03331,1131.4 1456.9,1131.4 L1459.5,1131.4 C1463.36669,1131.4 1466.33332,1132.43332 1468.4,1134.5 C1470.46668,1136.56668 1471.5,1139.53331 1471.5,1143.4 L1471.5,1146.8 C1471.5,1150.66669 1470.46668,1153.63332 1468.4,1155.7 C1466.33332,1157.76668 1463.36669,1158.8 1459.5,1158.8 L1456.9,1158.8 Z M1582.7,1050 C1586.16668,1050 1589.03332,1051.13332 1591.3,1053.4 C1593.56668,1055.66668 1594.7,1058.59998 1594.7,1062.2 L1594.7,1146.8 C1594.7,1150.26668 1593.56668,1153.16665 1591.3,1155.5 C1589.03332,1157.83335 1586.16668,1159 1582.7,1159 C1579.23332,1159 1576.40001,1157.86668 1574.2,1155.6 C1571.99999,1153.33332 1570.83333,1150.46668 1570.7,1147 C1567.36665,1150.86669 1562.86669,1154.16665 1557.2,1156.9 C1551.5333,1159.63335 1545.5667,1161 1539.3,1161 C1530.09995,1161 1521.7667,1158.63336 1514.3,1153.9 C1506.8333,1149.16664 1500.93335,1142.60004 1496.6,1134.2 C1492.26664,1125.79996 1490.1,1116.26672 1490.1,1105.6 C1490.1,1094.93328 1492.23331,1085.36671 1496.5,1076.9 C1500.76669,1068.43329 1506.59996,1061.83336 1514,1057.1 C1521.40004,1052.36664 1529.56662,1050 1538.5,1050 C1544.90003,1050 1550.89997,1051.16665 1556.5,1053.5 C1562.10003,1055.83335 1566.83331,1058.79998 1570.7,1062.4 L1570.7,1062.2 C1570.7,1058.73332 1571.83332,1055.83335 1574.1,1053.5 C1576.36668,1051.16665 1579.23332,1050 1582.7,1050 Z M1542.3,1139 C1550.96671,1139 1558.03331,1135.83336 1563.5,1129.5 C1568.96669,1123.16664 1571.7,1115.20005 1571.7,1105.6 C1571.7,1095.99995 1568.96669,1088.00003 1563.5,1081.6 C1558.03331,1075.19997 1550.96671,1072 1542.3,1072 C1533.76662,1072 1526.76669,1075.19997 1521.3,1081.6 C1515.83331,1088.00003 1513.1,1095.99995 1513.1,1105.6 C1513.1,1115.20005 1515.79997,1123.16664 1521.2,1129.5 C1526.60003,1135.83336 1533.63329,1139 1542.3,1139 Z M1676.1,1050 C1685.30005,1050 1693.6333,1052.36664 1701.1,1057.1 C1708.5667,1061.83336 1714.46664,1068.39996 1718.8,1076.8 C1723.13335,1085.20004 1725.3,1094.73328 1725.3,1105.4 C1725.3,1116.06672 1723.16669,1125.63329 1718.9,1134.1 C1714.63331,1142.56671 1708.80004,1149.16664 1701.4,1153.9 C1693.99996,1158.63336 1685.83338,1161 1676.9,1161 C1670.49997,1161 1664.4667,1159.70001 1658.8,1157.1 C1653.1333,1154.49999 1648.43335,1151.33335 1644.7,1147.6 L1644.7,1186.8 C1644.7,1190.26668 1643.56668,1193.16665 1641.3,1195.5 C1639.03332,1197.83335 1636.16668,1199 1632.7,1199 C1629.23332,1199 1626.36668,1197.86668 1624.1,1195.6 C1621.83332,1193.33332 1620.7,1190.40002 1620.7,1186.8 L1620.7,1064.2 C1620.7,1060.73332 1621.83332,1057.83335 1624.1,1055.5 C1626.36668,1053.16665 1629.23332,1052 1632.7,1052 C1636.16668,1052 1639.03332,1053.16665 1641.3,1055.5 C1643.56668,1057.83335 1644.7,1060.73332 1644.7,1064.2 L1644.7,1065 C1647.90002,1060.99998 1652.36664,1057.50002 1658.1,1054.5 C1663.83336,1051.49998 1669.8333,1050 1676.1,1050 Z M1673.1,1139 C1681.63338,1139 1688.63331,1135.80003 1694.1,1129.4 C1699.56669,1122.99997 1702.3,1115.00005 1702.3,1105.4 C1702.3,1095.79995 1699.60003,1087.83336 1694.2,1081.5 C1688.79997,1075.16664 1681.76671,1072 1673.1,1072 C1664.43329,1072 1657.36669,1075.16664 1651.9,1081.5 C1646.43331,1087.83336 1643.7,1095.79995 1643.7,1105.4 C1643.7,1115.00005 1646.43331,1122.99997 1651.9,1129.4 C1657.36669,1135.80003 1664.43329,1139 1673.1,1139 Z M1800.7,1050 C1809.90005,1050 1818.2333,1052.36664 1825.7,1057.1 C1833.1667,1061.83336 1839.06664,1068.39996 1843.4,1076.8 C1847.73335,1085.20004 1849.9,1094.73328 1849.9,1105.4 C1849.9,1116.06672 1847.76669,1125.63329 1843.5,1134.1 C1839.23331,1142.56671 1833.40004,1149.16664 1826,1153.9 C1818.59996,1158.63336 1810.43338,1161 1801.5,1161 C1795.09997,1161 1789.06669,1159.70001 1783.4,1157.1 C1777.7333,1154.49999 1773.03335,1151.33335 1769.3,1147.6 L1769.3,1186.8 C1769.3,1190.26668 1768.16668,1193.16665 1765.9,1195.5 C1763.63332,1197.83335 1760.76668,1199 1757.3,1199 C1753.83332,1199 1750.96668,1197.86668 1748.7,1195.6 C1746.43332,1193.33332 1745.3,1190.40002 1745.3,1186.8 L1745.3,1064.2 C1745.3,1060.73332 1746.43332,1057.83335 1748.7,1055.5 C1750.96668,1053.16665 1753.83332,1052 1757.3,1052 C1760.76668,1052 1763.63332,1053.16665 1765.9,1055.5 C1768.16668,1057.83335 1769.3,1060.73332 1769.3,1064.2 L1769.3,1065 C1772.50002,1060.99998 1776.96664,1057.50002 1782.7,1054.5 C1788.43336,1051.49998 1794.4333,1050 1800.7,1050 Z M1797.7,1139 C1806.23338,1139 1813.23331,1135.80003 1818.7,1129.4 C1824.16669,1122.99997 1826.9,1115.00005 1826.9,1105.4 C1826.9,1095.79995 1824.20003,1087.83336 1818.8,1081.5 C1813.39997,1075.16664 1806.36671,1072 1797.7,1072 C1789.03329,1072 1781.96669,1075.16664 1776.5,1081.5 C1771.03331,1087.83336 1768.3,1095.79995 1768.3,1105.4 C1768.3,1115.00005 1771.03331,1122.99997 1776.5,1129.4 C1781.96669,1135.80003 1789.03329,1139 1797.7,1139 Z" id="Canvas.app" fill="#2C3E50"></path>
        <g id="CanvasIconBlue" transform="translate(601.000000, 83.000000)">
            <g id="CanvasIcon">
                <rect id="Backholder" fill="#C0392B" x="372.218845" y="0" width="40.56231" height="78.7206704"></rect>
                <polygon id="RightLeg" fill="#C0392B" points="285.391552 670.318436 333.111917 670.318436 205.197568 854 157.477204 854"></polygon>
                <polygon id="LeftLeg" fill="#C0392B" transform="translate(541.160821, 762.159218) scale(-1, 1) translate(-541.160821, -762.159218) " points="581.257813 670.318436 628.978178 670.318436 501.06383 854 453.343465 854"></polygon>
                <polygon id="CanvasPaper" fill="#2C3E50" points="32.7010958 143.128492 752.298904 143.128492 785 605.910615 0 605.910615"></polygon>
                <rect id="BottomHolder" fill="#C0392B" x="73.9665653" y="617.837989" width="637.066869" height="40.5530726"></rect>
                <rect id="TopHolder" fill="#C0392B" x="181.337386" y="90.6480447" width="422.325228" height="40.5530726"></rect>
            </g>
        </g>
        <path d="M141.5,1185.5 L722,1185.5" id="Line" stroke="#C0392B" stroke-width="12" stroke-linecap="square"></path>
        <path d="M734,1185.5 L1606,1185.5" id="Line" stroke="#2C3E50" stroke-width="12" stroke-linecap="square"></path>
        <path d="M1659,1185.5 L1731,1185.5" id="Line-Copy" stroke="#2C3E50" stroke-width="12" stroke-linecap="square"></path>
        <path d="M1784,1185.5 L1852,1185.5" id="Line-Copy-2" stroke="#2C3E50" stroke-width="12" stroke-linecap="square"></path>
    </g>
</svg>