<?xml version="1.0" standalone="no"?>
<!DOCTYPE svg PUBLIC "-//W3C//DTD SVG 20010904//EN"
 "http://www.w3.org/TR/2001/REC-SVG-20010904/DTD/svg10.dtd">
<svg version="1.0" xmlns="http://www.w3.org/2000/svg"
 width="1024.000000pt" height="1024.000000pt" viewBox="0 0 1024.000000 1024.000000"
 preserveAspectRatio="xMidYMid meet">
<metadata>
Created by potrace 1.11, written by Peter Selinger 2001-2013
</metadata>
<g transform="translate(0.000000,1024.000000) scale(0.100000,-0.100000)"
fill="#000000" stroke="none">
<path d="M4922 8998 l3 -393 200 0 200 0 3 393 2 392 -205 0 -205 0 2 -392z"/>
<path d="M3010 8280 l0 -200 2115 0 2115 0 0 200 0 200 -2115 0 -2115 0 0
-200z"/>
<path d="M1526 7938 c-3 -13 -75 -1029 -161 -2258 -85 -1229 -158 -2261 -162
-2292 l-6 -58 3928 0 3928 0 -6 58 c-4 31 -77 1063 -162 2292 -86 1229 -158
2245 -161 2258 l-4 22 -3595 0 -3595 0 -4 -22z"/>
<path d="M1940 3010 l0 -200 3185 0 3185 0 0 200 0 200 -3185 0 -3185 0 0
-200z"/>
<path d="M4048 2673 c-9 -10 -298 -423 -642 -918 l-627 -900 233 -3 c211 -2
234 -1 249 15 9 10 290 412 624 893 335 481 617 887 627 903 l19 27 -234 0
c-210 0 -235 -2 -249 -17z"/>
<path d="M5740 2684 c0 -3 287 -417 637 -920 l636 -914 238 0 238 0 -496 713
c-273 391 -561 805 -641 920 l-144 207 -234 0 c-129 0 -234 -2 -234 -6z"/>
</g>
</svg>
