<?xml version="1.0" encoding="UTF-8"?>
<svg width="2884px" height="500px" viewBox="0 0 2884 500" version="1.1" xmlns="http://www.w3.org/2000/svg" xmlns:xlink="http://www.w3.org/1999/xlink">
    <!-- Generator: Sketch 50.2 (55047) - http://www.bohemiancoding.com/sketch -->
    <title>LogoModelCanvasApp</title>
    <desc>Created with Sketch.</desc>
    <defs></defs>
    <g id="LogoModelCanvasApp" stroke="none" stroke-width="1" fill="none" fill-rule="evenodd">
        <g id="easel" transform="translate(37.000000, 53.000000)"></g>
        <path d="M1411.72,157.192 C1417.67203,160.264015 1420.648,165.159966 1420.648,171.88 C1420.648,175.91202 1419.20801,179.847981 1416.328,183.688 C1413.25598,187.72002 1409.32002,189.736 1404.52,189.736 C1401.25598,189.736 1397.99202,188.872009 1394.728,187.144 C1385.31995,182.727978 1375.14405,180.52 1364.2,180.52 C1350.75993,180.52 1339.04805,183.351972 1329.064,189.016 C1319.07995,194.680028 1311.40003,202.647949 1306.024,212.92 C1300.64797,223.192051 1297.96,234.951934 1297.96,248.2 C1297.96,270.856113 1304.05594,288.039941 1316.248,299.752 C1328.44006,311.464059 1344.4239,317.32 1364.2,317.32 C1375.91206,317.32 1386.08796,315.112022 1394.728,310.696 C1398.18402,309.159992 1401.25599,308.392 1403.944,308.392 C1408.93602,308.392 1413.15998,310.503979 1416.616,314.728 C1419.49601,318.376018 1420.936,322.311979 1420.936,326.536 C1420.936,329.608015 1420.16801,332.391988 1418.632,334.888 C1417.09599,337.384012 1414.88801,339.303993 1412.008,340.648 C1397.03193,348.136037 1381.09608,351.88 1364.2,351.88 C1345.38391,351.88 1328.10408,347.89604 1312.36,339.928 C1296.61592,331.95996 1284.04005,320.200078 1274.632,304.648 C1265.22395,289.095922 1260.52,270.28011 1260.52,248.2 C1260.52,228.615902 1264.98396,211.048078 1273.912,195.496 C1282.84004,179.943922 1295.17592,167.800044 1310.92,159.064 C1326.66408,150.327956 1344.4239,145.96 1364.2,145.96 C1381.28809,145.96 1397.12793,149.703963 1411.72,157.192 Z M1573,192.04 C1577.99202,192.04 1582.11998,193.671984 1585.384,196.936 C1588.64802,200.200016 1590.28,204.423974 1590.28,209.608 L1590.28,331.432 C1590.28,336.424025 1588.64802,340.599983 1585.384,343.96 C1582.11998,347.320017 1577.99202,349 1573,349 C1568.00798,349 1563.92802,347.368016 1560.76,344.104 C1557.59198,340.839984 1555.912,336.712025 1555.72,331.72 C1550.91998,337.288028 1544.44004,342.03998 1536.28,345.976 C1528.11996,349.91202 1519.52805,351.88 1510.504,351.88 C1497.25593,351.88 1485.25605,348.472034 1474.504,341.656 C1463.75195,334.839966 1455.25603,325.38406 1449.016,313.288 C1442.77597,301.19194 1439.656,287.464077 1439.656,272.104 C1439.656,256.743923 1442.72797,242.968061 1448.872,230.776 C1455.01603,218.583939 1463.41595,209.080034 1474.072,202.264 C1484.72805,195.447966 1496.48794,192.04 1509.352,192.04 C1518.56805,192.04 1527.20796,193.719983 1535.272,197.08 C1543.33604,200.440017 1550.15197,204.711974 1555.72,209.896 L1555.72,209.608 C1555.72,204.615975 1557.35198,200.440017 1560.616,197.08 C1563.88002,193.719983 1568.00798,192.04 1573,192.04 Z M1514.824,320.2 C1527.30406,320.2 1537.47996,315.640046 1545.352,306.52 C1553.22404,297.399954 1557.16,285.928069 1557.16,272.104 C1557.16,258.279931 1553.22404,246.760046 1545.352,237.544 C1537.47996,228.327954 1527.30406,223.72 1514.824,223.72 C1502.53594,223.72 1492.45604,228.327954 1484.584,237.544 C1476.71196,246.760046 1472.776,258.279931 1472.776,272.104 C1472.776,285.928069 1476.66396,297.399954 1484.44,306.52 C1492.21604,315.640046 1502.34394,320.2 1514.824,320.2 Z M1710.088,192.04 C1729.6721,192.04 1743.20796,197.847942 1750.696,209.464 C1758.18404,221.080058 1761.928,237.159897 1761.928,257.704 L1761.928,331.432 C1761.928,336.424025 1760.29602,340.599983 1757.032,343.96 C1753.76798,347.320017 1749.64002,349 1744.648,349 C1739.65598,349 1735.52802,347.320017 1732.264,343.96 C1728.99998,340.599983 1727.368,336.424025 1727.368,331.432 L1727.368,257.704 C1727.368,247.143947 1725.16002,238.84003 1720.744,232.792 C1716.32798,226.74397 1708.74405,223.72 1697.992,223.72 C1686.85594,223.72 1678.12003,226.935968 1671.784,233.368 C1665.44797,239.800032 1662.28,247.911951 1662.28,257.704 L1662.28,331.432 C1662.28,336.424025 1660.64802,340.599983 1657.384,343.96 C1654.11998,347.320017 1649.99202,349 1645,349 C1640.00798,349 1635.88002,347.320017 1632.616,343.96 C1629.35198,340.599983 1627.72,336.424025 1627.72,331.432 L1627.72,212.488 C1627.72,207.495975 1629.35198,203.320017 1632.616,199.96 C1635.88002,196.599983 1640.00798,194.92 1645,194.92 C1649.99202,194.92 1654.11998,196.599983 1657.384,199.96 C1660.64802,203.320017 1662.28,207.495975 1662.28,212.488 L1662.28,217.384 C1667.46403,210.471965 1674.23196,204.520025 1682.584,199.528 C1690.93604,194.535975 1700.10395,192.04 1710.088,192.04 Z M1916.296,195.208 C1920.90402,195.208 1924.74398,196.695985 1927.816,199.672 C1930.88802,202.648015 1932.424,206.343978 1932.424,210.76 C1932.424,213.064012 1931.65601,215.943983 1930.12,219.4 L1876.264,338.056 C1874.91999,341.320016 1872.95201,343.91199 1870.36,345.832 C1867.76799,347.75201 1864.84002,348.807999 1861.576,349 L1858.984,349.288 C1855.71998,349.288 1852.69601,348.28001 1849.912,346.264 C1847.12799,344.24799 1844.96801,341.512017 1843.432,338.056 L1789.864,219.4 C1788.51999,216.327985 1787.848,213.256015 1787.848,210.184 C1787.848,206.343981 1789.47998,202.840016 1792.744,199.672 C1796.00802,196.503984 1800.03998,194.92 1804.84,194.92 C1808.48802,194.92 1811.84798,195.87999 1814.92,197.8 C1817.99202,199.72001 1820.29599,202.407983 1821.832,205.864 L1861.576,296.872 L1901.032,206.152 C1902.56801,202.503982 1904.67999,199.72001 1907.368,197.8 C1910.05601,195.87999 1913.03198,195.015999 1916.296,195.208 Z M2083.912,192.04 C2088.90402,192.04 2093.03198,193.671984 2096.296,196.936 C2099.56002,200.200016 2101.192,204.423974 2101.192,209.608 L2101.192,331.432 C2101.192,336.424025 2099.56002,340.599983 2096.296,343.96 C2093.03198,347.320017 2088.90402,349 2083.912,349 C2078.91998,349 2074.84002,347.368016 2071.672,344.104 C2068.50398,340.839984 2066.824,336.712025 2066.632,331.72 C2061.83198,337.288028 2055.35204,342.03998 2047.192,345.976 C2039.03196,349.91202 2030.44005,351.88 2021.416,351.88 C2008.16793,351.88 1996.16805,348.472034 1985.416,341.656 C1974.66395,334.839966 1966.16803,325.38406 1959.928,313.288 C1953.68797,301.19194 1950.568,287.464077 1950.568,272.104 C1950.568,256.743923 1953.63997,242.968061 1959.784,230.776 C1965.92803,218.583939 1974.32795,209.080034 1984.984,202.264 C1995.64005,195.447966 2007.39994,192.04 2020.264,192.04 C2029.48005,192.04 2038.11996,193.719983 2046.184,197.08 C2054.24804,200.440017 2061.06397,204.711974 2066.632,209.896 L2066.632,209.608 C2066.632,204.615975 2068.26398,200.440017 2071.528,197.08 C2074.79202,193.719983 2078.91998,192.04 2083.912,192.04 Z M2025.736,320.2 C2038.21606,320.2 2048.39196,315.640046 2056.264,306.52 C2064.13604,297.399954 2068.072,285.928069 2068.072,272.104 C2068.072,258.279931 2064.13604,246.760046 2056.264,237.544 C2048.39196,228.327954 2038.21606,223.72 2025.736,223.72 C2013.44794,223.72 2003.36804,228.327954 1995.496,237.544 C1987.62396,246.760046 1983.688,258.279931 1983.688,272.104 C1983.688,285.928069 1987.57596,297.399954 1995.352,306.52 C2003.12804,315.640046 2013.25594,320.2 2025.736,320.2 Z M2129.704,325.096 C2127.97599,322.791988 2127.112,319.912017 2127.112,316.456 C2127.112,311.463975 2129.60798,307.240017 2134.6,303.784 C2137.28801,302.055991 2140.07199,301.192 2142.952,301.192 C2146.98402,301.192 2150.82398,303.015982 2154.472,306.664 C2160.23203,312.61603 2166.23197,317.031986 2172.472,319.912 C2178.71203,322.792014 2186.24796,324.232 2195.08,324.232 C2210.05607,323.655997 2217.544,317.992054 2217.544,307.24 C2217.544,301.671972 2215.00003,297.448014 2209.912,294.568 C2204.82397,291.687986 2196.90405,288.808014 2186.152,285.928 C2175.01594,282.855985 2165.94404,279.784015 2158.936,276.712 C2151.92796,273.639985 2145.88003,268.984031 2140.792,262.744 C2135.70397,256.503969 2133.16,248.104053 2133.16,237.544 C2133.16,228.327954 2135.79997,220.312034 2141.08,213.496 C2146.36003,206.679966 2153.27196,201.400019 2161.816,197.656 C2170.36004,193.911981 2179.43195,192.04 2189.032,192.04 C2198.82405,192.04 2208.61595,193.863982 2218.408,197.512 C2228.20005,201.160018 2235.87997,206.535964 2241.448,213.64 C2243.94401,216.712015 2245.192,220.167981 2245.192,224.008 C2245.192,228.424022 2243.36802,232.071986 2239.72,234.952 C2237.03199,237.064011 2233.96002,238.12 2230.504,238.12 C2226.27998,238.12 2222.82401,236.776013 2220.136,234.088 C2216.67998,229.863979 2212.21603,226.504012 2206.744,224.008 C2201.27197,221.511988 2195.08003,220.264 2188.168,220.264 C2173.57593,220.264 2166.28,225.543947 2166.28,236.104 C2166.28,240.328021 2167.62399,243.735987 2170.312,246.328 C2173.00001,248.920013 2176.40798,250.935993 2180.536,252.376 C2184.66402,253.816007 2190.47196,255.591989 2197.96,257.704 C2208.32805,260.584014 2216.96797,263.559985 2223.88,266.632 C2230.79203,269.704015 2236.64798,274.407968 2241.448,280.744 C2246.24802,287.080032 2248.648,295.431948 2248.648,305.8 C2248.648,315.208047 2245.86403,323.415965 2240.296,330.424 C2234.72797,337.432035 2227.57604,342.759982 2218.84,346.408 C2210.10396,350.056018 2201.12805,351.88 2191.912,351.88 C2179.23994,351.88 2167.43205,349.768021 2156.488,345.544 C2145.54395,341.319979 2136.61603,334.504047 2129.704,325.096 Z M2292.712,348.712 C2287.14397,348.712 2282.87201,347.224015 2279.896,344.248 C2276.91999,341.271985 2275.432,337.000028 2275.432,331.432 L2275.432,326.536 C2275.432,320.967972 2276.91999,316.696015 2279.896,313.72 C2282.87201,310.743985 2287.14397,309.256 2292.712,309.256 L2296.456,309.256 C2302.02403,309.256 2306.29599,310.743985 2309.272,313.72 C2312.24801,316.696015 2313.736,320.967972 2313.736,326.536 L2313.736,331.432 C2313.736,337.000028 2312.24801,341.271985 2309.272,344.248 C2306.29599,347.224015 2302.02403,348.712 2296.456,348.712 L2292.712,348.712 Z M2473.864,192.04 C2478.85602,192.04 2482.98398,193.671984 2486.248,196.936 C2489.51202,200.200016 2491.144,204.423974 2491.144,209.608 L2491.144,331.432 C2491.144,336.424025 2489.51202,340.599983 2486.248,343.96 C2482.98398,347.320017 2478.85602,349 2473.864,349 C2468.87198,349 2464.79202,347.368016 2461.624,344.104 C2458.45598,340.839984 2456.776,336.712025 2456.584,331.72 C2451.78398,337.288028 2445.30404,342.03998 2437.144,345.976 C2428.98396,349.91202 2420.39205,351.88 2411.368,351.88 C2398.11993,351.88 2386.12005,348.472034 2375.368,341.656 C2364.61595,334.839966 2356.12003,325.38406 2349.88,313.288 C2343.63997,301.19194 2340.52,287.464077 2340.52,272.104 C2340.52,256.743923 2343.59197,242.968061 2349.736,230.776 C2355.88003,218.583939 2364.27995,209.080034 2374.936,202.264 C2385.59205,195.447966 2397.35194,192.04 2410.216,192.04 C2419.43205,192.04 2428.07196,193.719983 2436.136,197.08 C2444.20004,200.440017 2451.01597,204.711974 2456.584,209.896 L2456.584,209.608 C2456.584,204.615975 2458.21598,200.440017 2461.48,197.08 C2464.74402,193.719983 2468.87198,192.04 2473.864,192.04 Z M2415.688,320.2 C2428.16806,320.2 2438.34396,315.640046 2446.216,306.52 C2454.08804,297.399954 2458.024,285.928069 2458.024,272.104 C2458.024,258.279931 2454.08804,246.760046 2446.216,237.544 C2438.34396,228.327954 2428.16806,223.72 2415.688,223.72 C2403.39994,223.72 2393.32004,228.327954 2385.448,237.544 C2377.57596,246.760046 2373.64,258.279931 2373.64,272.104 C2373.64,285.928069 2377.52796,297.399954 2385.304,306.52 C2393.08004,315.640046 2403.20794,320.2 2415.688,320.2 Z M2608.36,192.04 C2621.60807,192.04 2633.60795,195.447966 2644.36,202.264 C2655.11205,209.080034 2663.60797,218.53594 2669.848,230.632 C2676.08803,242.72806 2679.208,256.455923 2679.208,271.816 C2679.208,287.176077 2676.13603,300.951939 2669.992,313.144 C2663.84797,325.336061 2655.44805,334.839966 2644.792,341.656 C2634.13595,348.472034 2622.37606,351.88 2609.512,351.88 C2600.29595,351.88 2591.60804,350.008019 2583.448,346.264 C2575.28796,342.519981 2568.52003,337.960027 2563.144,332.584 L2563.144,389.032 C2563.144,394.024025 2561.51202,398.199983 2558.248,401.56 C2554.98398,404.920017 2550.85602,406.6 2545.864,406.6 C2540.87198,406.6 2536.74402,404.968016 2533.48,401.704 C2530.21598,398.439984 2528.584,394.216026 2528.584,389.032 L2528.584,212.488 C2528.584,207.495975 2530.21598,203.320017 2533.48,199.96 C2536.74402,196.599983 2540.87198,194.92 2545.864,194.92 C2550.85602,194.92 2554.98398,196.599983 2558.248,199.96 C2561.51202,203.320017 2563.144,207.495975 2563.144,212.488 L2563.144,213.64 C2567.75202,207.879971 2574.18396,202.840022 2582.44,198.52 C2590.69604,194.199978 2599.33595,192.04 2608.36,192.04 Z M2604.04,320.2 C2616.32806,320.2 2626.40796,315.592046 2634.28,306.376 C2642.15204,297.159954 2646.088,285.640069 2646.088,271.816 C2646.088,257.991931 2642.20004,246.520046 2634.424,237.4 C2626.64796,228.279954 2616.52006,223.72 2604.04,223.72 C2591.55994,223.72 2581.38404,228.279954 2573.512,237.4 C2565.63996,246.520046 2561.704,257.991931 2561.704,271.816 C2561.704,285.640069 2565.63996,297.159954 2573.512,306.376 C2581.38404,315.592046 2591.55994,320.2 2604.04,320.2 Z M2787.784,192.04 C2801.03207,192.04 2813.03195,195.447966 2823.784,202.264 C2834.53605,209.080034 2843.03197,218.53594 2849.272,230.632 C2855.51203,242.72806 2858.632,256.455923 2858.632,271.816 C2858.632,287.176077 2855.56003,300.951939 2849.416,313.144 C2843.27197,325.336061 2834.87205,334.839966 2824.216,341.656 C2813.55995,348.472034 2801.80006,351.88 2788.936,351.88 C2779.71995,351.88 2771.03204,350.008019 2762.872,346.264 C2754.71196,342.519981 2747.94403,337.960027 2742.568,332.584 L2742.568,389.032 C2742.568,394.024025 2740.93602,398.199983 2737.672,401.56 C2734.40798,404.920017 2730.28002,406.6 2725.288,406.6 C2720.29598,406.6 2716.16802,404.968016 2712.904,401.704 C2709.63998,398.439984 2708.008,394.216026 2708.008,389.032 L2708.008,212.488 C2708.008,207.495975 2709.63998,203.320017 2712.904,199.96 C2716.16802,196.599983 2720.29598,194.92 2725.288,194.92 C2730.28002,194.92 2734.40798,196.599983 2737.672,199.96 C2740.93602,203.320017 2742.568,207.495975 2742.568,212.488 L2742.568,213.64 C2747.17602,207.879971 2753.60796,202.840022 2761.864,198.52 C2770.12004,194.199978 2778.75995,192.04 2787.784,192.04 Z M2783.464,320.2 C2795.75206,320.2 2805.83196,315.592046 2813.704,306.376 C2821.57604,297.159954 2825.512,285.640069 2825.512,271.816 C2825.512,257.991931 2821.62404,246.520046 2813.848,237.4 C2806.07196,228.279954 2795.94406,223.72 2783.464,223.72 C2770.98394,223.72 2760.80804,228.279954 2752.936,237.4 C2745.06396,246.520046 2741.128,257.991931 2741.128,271.816 C2741.128,285.640069 2745.06396,297.159954 2752.936,306.376 C2760.80804,315.592046 2770.98394,320.2 2783.464,320.2 Z" id="Canvas.app" fill="#2C3E50"></path>
        <path d="M580.416,192.04 C599.424095,192.04 612.575964,197.847942 619.872,209.464 C627.168036,221.080058 630.816,237.159897 630.816,257.704 L630.816,331.432 C630.816,336.424025 629.184016,340.599983 625.92,343.96 C622.655984,347.320017 618.528025,349 613.536,349 C608.543975,349 604.416016,347.320017 601.152,343.96 C597.887984,340.599983 596.256,336.424025 596.256,331.432 L596.256,257.704 C596.256,247.143947 594.192021,238.84003 590.064,232.792 C585.935979,226.74397 578.688052,223.72 568.32,223.72 C557.567946,223.72 549.16803,226.935968 543.12,233.368 C537.07197,239.800032 534.048,247.911951 534.048,257.704 L534.048,331.432 C534.048,336.424025 532.416016,340.599983 529.152,343.96 C525.887984,347.320017 521.760025,349 516.768,349 C511.775975,349 507.648016,347.320017 504.384,343.96 C501.119984,340.599983 499.488,336.424025 499.488,331.432 L499.488,257.704 C499.488,247.143947 497.424021,238.84003 493.296,232.792 C489.167979,226.74397 481.920052,223.72 471.552,223.72 C460.799946,223.72 452.40003,226.935968 446.352,233.368 C440.30397,239.800032 437.28,247.911951 437.28,257.704 L437.28,331.432 C437.28,336.424025 435.648016,340.599983 432.384,343.96 C429.119984,347.320017 424.992025,349 420,349 C415.007975,349 410.880016,347.320017 407.616,343.96 C404.351984,340.599983 402.72,336.424025 402.72,331.432 L402.72,212.488 C402.72,207.495975 404.351984,203.320017 407.616,199.96 C410.880016,196.599983 415.007975,194.92 420,194.92 C424.992025,194.92 429.119984,196.599983 432.384,199.96 C435.648016,203.320017 437.28,207.495975 437.28,212.488 L437.28,217.096 C442.464026,210.183965 449.03996,204.280024 457.008,199.384 C464.97604,194.487976 473.855951,192.04 483.648,192.04 C507.840121,192.04 523.295966,202.599894 530.016,223.72 C534.432022,215.65596 541.103955,208.360033 550.032,201.832 C558.960045,195.303967 569.087943,192.04 580.416,192.04 Z M816.288,272.104 C816.288,287.464077 812.832035,301.239939 805.92,313.432 C799.007965,325.624061 789.55206,335.079966 777.552,341.8 C765.55194,348.520034 752.352072,351.88 737.952,351.88 C723.359927,351.88 710.11206,348.520034 698.208,341.8 C686.30394,335.079966 676.896035,325.624061 669.984,313.432 C663.071965,301.239939 659.616,287.464077 659.616,272.104 C659.616,256.743923 663.071965,242.968061 669.984,230.776 C676.896035,218.583939 686.30394,209.080034 698.208,202.264 C710.11206,195.447966 723.359927,192.04 737.952,192.04 C752.352072,192.04 765.55194,195.447966 777.552,202.264 C789.55206,209.080034 799.007965,218.583939 805.92,230.776 C812.832035,242.968061 816.288,256.743923 816.288,272.104 Z M781.728,272.104 C781.728,262.695953 779.76002,254.296037 775.824,246.904 C771.88798,239.511963 766.608033,233.80002 759.984,229.768 C753.359967,225.73598 746.01604,223.72 737.952,223.72 C729.88796,223.72 722.544033,225.73598 715.92,229.768 C709.295967,233.80002 704.01602,239.511963 700.08,246.904 C696.14398,254.296037 694.176,262.695953 694.176,272.104 C694.176,281.512047 696.14398,289.863964 700.08,297.16 C704.01602,304.456036 709.295967,310.11998 715.92,314.152 C722.544033,318.18402 729.88796,320.2 737.952,320.2 C746.01604,320.2 753.359967,318.18402 759.984,314.152 C766.608033,310.11998 771.88798,304.456036 775.824,297.16 C779.76002,289.863964 781.728,281.512047 781.728,272.104 Z M969.792,135.88 C974.784025,135.88 978.911984,137.511984 982.176,140.776 C985.440016,144.040016 987.072,148.263974 987.072,153.448 L987.072,331.432 C987.072,336.424025 985.440016,340.599983 982.176,343.96 C978.911984,347.320017 974.784025,349 969.792,349 C964.799975,349 960.720016,347.368016 957.552,344.104 C954.383984,340.839984 952.704001,336.712025 952.512,331.72 C947.711976,337.288028 941.232041,342.03998 933.072,345.976 C924.911959,349.91202 916.320045,351.88 907.296,351.88 C894.047934,351.88 882.048054,348.472034 871.296,341.656 C860.543946,334.839966 852.048031,325.38406 845.808,313.288 C839.567969,301.19194 836.448,287.464077 836.448,272.104 C836.448,256.743923 839.519969,242.968061 845.664,230.776 C851.808031,218.583939 860.207947,209.080034 870.864,202.264 C881.520053,195.447966 893.279936,192.04 906.144,192.04 C915.360046,192.04 923.99996,193.719983 932.064,197.08 C940.12804,200.440017 946.943972,204.711974 952.512,209.896 L952.512,153.448 C952.512,148.455975 954.143984,144.280017 957.408,140.92 C960.672016,137.559983 964.799975,135.88 969.792,135.88 Z M911.616,320.2 C924.096062,320.2 934.271961,315.640046 942.144,306.52 C950.016039,297.399954 953.952,285.928069 953.952,272.104 C953.952,258.279931 950.016039,246.760046 942.144,237.544 C934.271961,228.327954 924.096062,223.72 911.616,223.72 C899.327939,223.72 889.248039,228.327954 881.376,237.544 C873.503961,246.760046 869.568,258.279931 869.568,272.104 C869.568,285.928069 873.455961,297.399954 881.232,306.52 C889.008039,315.640046 899.135938,320.2 911.616,320.2 Z M1162.752,268.36 C1162.56,272.968023 1160.73602,276.711986 1157.28,279.592 C1153.82398,282.472014 1149.79202,283.912 1145.184,283.912 L1050.144,283.912 C1052.44801,295.240057 1057.72796,304.119968 1065.984,310.552 C1074.24004,316.984032 1083.55195,320.2 1093.92,320.2 C1101.79204,320.2 1107.93598,319.480007 1112.352,318.04 C1116.76802,316.599993 1120.27199,315.064008 1122.864,313.432 C1125.45601,311.799992 1127.232,310.696003 1128.192,310.12 C1131.64802,308.391991 1134.91198,307.528 1137.984,307.528 C1142.01602,307.528 1145.47199,308.967986 1148.352,311.848 C1151.23201,314.728014 1152.672,318.087981 1152.672,321.928 C1152.672,327.112026 1149.98403,331.815979 1144.608,336.04 C1139.23197,340.456022 1132.03205,344.199985 1123.008,347.272 C1113.98395,350.344015 1104.86405,351.88 1095.648,351.88 C1079.51992,351.88 1065.45606,348.520034 1053.456,341.8 C1041.45594,335.079966 1032.19203,325.816059 1025.664,314.008 C1019.13597,302.199941 1015.872,288.904074 1015.872,274.12 C1015.872,257.607917 1019.32797,243.112062 1026.24,230.632 C1033.15203,218.151938 1042.27194,208.600033 1053.6,201.976 C1064.92806,195.351967 1077.02394,192.04 1089.888,192.04 C1102.56006,192.04 1114.51194,195.495965 1125.744,202.408 C1136.97606,209.320035 1145.95197,218.631941 1152.672,230.344 C1159.39203,242.056059 1162.752,254.727932 1162.752,268.36 Z M1089.888,223.72 C1067.61589,223.72 1054.46402,234.183895 1050.432,255.112 L1125.888,255.112 L1125.888,253.096 C1125.12,245.03196 1121.18404,238.120029 1114.08,232.36 C1106.97596,226.599971 1098.91205,223.72 1089.888,223.72 Z M1228.992,331.432 C1228.992,336.424025 1227.31202,340.599983 1223.952,343.96 C1220.59198,347.320017 1216.41602,349 1211.424,349 C1206.62398,349 1202.59202,347.320017 1199.328,343.96 C1196.06398,340.599983 1194.432,336.424025 1194.432,331.432 L1194.432,153.448 C1194.432,148.455975 1196.11198,144.280017 1199.472,140.92 C1202.83202,137.559983 1207.00798,135.88 1212,135.88 C1216.80002,135.88 1220.83198,137.559983 1224.096,140.92 C1227.36002,144.280017 1228.992,148.455975 1228.992,153.448 L1228.992,331.432 Z" id="model" fill="#C0392B"></path>
        <g id="CanvasIconBlue" transform="translate(37.000000, 56.000000)">
            <g id="CanvasIcon">
                <rect id="Backholder" fill="#C0392B" x="156" y="0" width="17" height="33"></rect>
                <polygon id="RightLeg" fill="#C0392B" points="119.609962 281 139.609962 281 86 358 66 358"></polygon>
                <polygon id="LeftLeg" fill="#C0392B" transform="translate(226.804981, 319.500000) scale(-1, 1) translate(-226.804981, -319.500000) " points="243.609962 281 263.609962 281 210 358 190 358"></polygon>
                <polygon id="CanvasPaper" fill="#2C3E50" points="13.7053 60 315.2947 60 329 254 0 254"></polygon>
                <rect id="BottomHolder" fill="#C0392B" x="31" y="259" width="267" height="17"></rect>
                <rect id="TopHolder" fill="#C0392B" x="76" y="38" width="177" height="17"></rect>
            </g>
        </g>
    </g>
</svg>